<svg width="26" height="26" viewBox="0 0 20 20" fill="none" xmlns="http://www.w3.org/2000/svg">
<path d="M18.6818 12.5348C18.1028 14.3761 16.8142 16.6581 14.2917 18.0107C12.7282 18.849 11.0306 19.1836 9.38315 19.0713L9.42568 0.943275C9.47776 0.938984 9.53005 0.935086 9.58253 0.931595C10.0681 0.928054 10.6665 0.949685 11.28 1.01939C11.5536 1.05048 11.8247 1.09057 12.0863 1.14067C12.6587 1.27626 13.2174 1.46689 13.754 1.71003C15.5103 2.50588 17.0281 3.8636 18.0099 5.69471C18.8203 7.20597 19.1598 8.84231 19.0803 10.4374C19.0472 10.9749 18.9268 11.716 18.6818 12.5348ZM8.42537 1.07525L8.38344 18.9474C5.74393 18.4712 3.34092 16.8384 1.97576 14.2924C-0.398422 9.86468 1.2663 4.35063 5.694 1.97644C6.26708 1.66915 7.24635 1.28859 8.42537 1.07525Z" stroke="url(#paint0_linear_0_497)"/>
<defs>
<linearGradient id="paint0_linear_0_497" x1="0.755987" y1="8.72387" x2="20.9646" y2="9.99258" gradientUnits="userSpaceOnUse">
<stop offset="0.288448" stop-color="#555248"/>
<stop offset="0.780176" stop-color="#1B1A17" stop-opacity="0"/>
</linearGradient>
</defs>
</svg>
